<svg xmlns="http://www.w3.org/2000/svg" width="24" height="24" viewBox="0 0 24 24" fill="currentColor">
  <path d="M11.571 4.714h1.715v5.143H11.57zm4.715 0H18v5.143h-1.714zM6.857 14.714c0-.464.097-.911.29-1.337.192-.427.459-.8.8-1.12.341-.32.746-.572 1.217-.756.47-.184.98-.276 1.525-.276.546 0 1.056.092 1.526.276.471.184.877.437 1.218.756.341.32.608.693.8 1.12.193.426.29.873.29 1.337v5.143c0 .464-.097.911-.29 1.337-.192.427-.459.8-.8 1.12-.341.32-.747.572-1.218.756-.47.184-.98.276-1.526.276-.545 0-1.055-.092-1.525-.276-.471-.184-.876-.437-1.217-.756-.341-.32-.608-.693-.8-1.12-.193-.426-.29-.873-.29-1.337v-5.143zM24 1.714v20.572L21.257 24H2.743L0 22.286V1.714L2.743 0h18.514L24 1.714zM22.286 2.743L21.257 1.714H2.743L1.714 2.743v18.514l1.029 1.029h18.514l1.029-1.029V2.743z"/>
</svg>